RobotoExtremo-opszmax-wdthmin-wght400-XTRAmin.ufo
<glyph name="quotedbl" format="2">
  <advance width="505"/>
  <unicode hex="0022"/>
  <outline>
    <contour>
      <point x="106.0" y="1113.0" type="line"/>
      <point x="180.0" y="1113.0" type="line"/>
      <point x="195.0" y="1361.0" type="line"/>
      <point x="195.0" y="1456.0" type="line"/>
      <point x="90.0" y="1456.0" type="line"/>
      <point x="90.0" y="1361.0" type="line"/>
    </contour>
    <contour>
      <point x="326.0" y="1113.0" type="line"/>
      <point x="400.0" y="1113.0" type="line"/>
      <point x="415.0" y="1361.0" type="line"/>
      <point x="415.0" y="1456.0" type="line"/>
      <point x="310.0" y="1456.0" type="line"/>
      <point x="310.0" y="1361.0" type="line"/>
    </contour>
  </outline>
</glyph>
<glyph name="dollar" format="2">
  <advance width="556"/>
  <unicode hex="0024"/>
  <outline>
    <contour>
      <point x="35.0" y="407.0" type="line" smooth="yes"/>
      <point x="35.0" y="162.0"/>
      <point x="170.0" y="0.0"/>
      <point x="283.0" y="0.0" type="qcurve" smooth="yes"/>
      <point x="395.0" y="0.0"/>
      <point x="527.0" y="199.0"/>
      <point x="527.0" y="374.0" type="qcurve" smooth="yes"/>
      <point x="527.0" y="531.0"/>
      <point x="431.0" y="734.0"/>
      <point x="310.0" y="795.0" type="qcurve" smooth="yes"/>
      <point x="210.0" y="845.0"/>
      <point x="146.0" y="989.0"/>
      <point x="146.0" y="1099.0" type="qcurve" smooth="yes"/>
      <point x="146.0" y="1226.0"/>
      <point x="204.0" y="1363.0"/>
      <point x="277.0" y="1363.0" type="qcurve" smooth="yes"/>
      <point x="360.0" y="1363.0"/>
      <point x="414.0" y="1200.0"/>
      <point x="414.0" y="1055.0" type="qcurve" smooth="yes"/>
      <point x="414.0" y="1033.0" type="line"/>
      <point x="510.0" y="1033.0" type="line"/>
      <point x="510.0" y="1055.0" type="line" smooth="yes"/>
      <point x="510.0" y="1285.0"/>
      <point x="385.0" y="1456.0"/>
      <point x="277.0" y="1456.0" type="qcurve" smooth="yes"/>
      <point x="172.0" y="1456.0"/>
      <point x="51.0" y="1274.0"/>
      <point x="51.0" y="1096.0" type="qcurve" smooth="yes"/>
      <point x="51.0" y="940.0"/>
      <point x="156.0" y="747.0"/>
      <point x="280.0" y="686.0" type="qcurve" smooth="yes"/>
      <point x="382.0" y="636.0"/>
      <point x="432.0" y="483.0"/>
      <point x="432.0" y="371.0" type="qcurve" smooth="yes"/>
      <point x="432.0" y="245.0"/>
      <point x="370.0" y="93.0"/>
      <point x="283.0" y="93.0" type="qcurve" smooth="yes"/>
      <point x="197.0" y="93.0"/>
      <point x="131.0" y="242.99999999999997"/>
      <point x="131.0" y="407.0" type="qcurve" smooth="yes"/>
      <point x="131.0" y="429.0" type="line"/>
      <point x="35.0" y="429.0" type="line"/>
    </contour>
    <contour>
      <point x="254.0" y="-150.0" type="line"/>
      <point x="320.0" y="-150.0" type="line"/>
      <point x="320.0" y="40.0" type="line"/>
      <point x="317.0" y="50.0" type="line"/>
      <point x="317.0" y="728.0" type="line"/>
      <point x="254.0" y="728.0" type="line"/>
    </contour>
    <contour>
      <point x="254.0" y="728.0" type="line"/>
      <point x="317.0" y="728.0" type="line"/>
      <point x="317.0" y="1606.0" type="line"/>
      <point x="251.0" y="1606.0" type="line"/>
      <point x="251.0" y="1406.0" type="line"/>
      <point x="254.0" y="1396.0" type="line"/>
    </contour>
  </outline>
</glyph>
<glyph name="ampersand" format="2">
  <advance width="472"/>
  <unicode hex="0026"/>
  <outline>
    <contour>
      <point x="39.0" y="322.0" type="qcurve" smooth="yes"/>
      <point x="39.0" y="160.0"/>
      <point x="137.0" y="-20.0"/>
      <point x="218.0" y="-20.0" type="qcurve" smooth="yes"/>
      <point x="349.0" y="-20.0"/>
      <point x="465.0" y="335.0"/>
      <point x="440.0" y="674.0" type="qcurve"/>
      <point x="346.0" y="674.0" type="line"/>
      <point x="377.0" y="377.0"/>
      <point x="298.0" y="79.0"/>
      <point x="224.0" y="79.0" type="qcurve" smooth="yes"/>
      <point x="171.0" y="79.0"/>
      <point x="140.0" y="224.0"/>
      <point x="140.0" y="337.0" type="qcurve" smooth="yes"/>
      <point x="140.0" y="463.0"/>
      <point x="186.0" y="647.0"/>
      <point x="231.0" y="741.0" type="qcurve" smooth="yes"/>
      <point x="277.0" y="838.0" type="line" smooth="yes"/>
      <point x="307.0" y="900.0"/>
      <point x="346.0" y="1090.0"/>
      <point x="346.0" y="1215.0" type="qcurve" smooth="yes"/>
      <point x="346.0" y="1335.0"/>
      <point x="286.0" y="1487.0"/>
      <point x="209.0" y="1487.0" type="qcurve" smooth="yes"/>
      <point x="135.0" y="1487.0"/>
      <point x="75.0" y="1314.0"/>
      <point x="75.0" y="1186.0" type="qcurve" smooth="yes"/>
      <point x="75.0" y="1071.0"/>
      <point x="113.0" y="867.0"/>
      <point x="147.0" y="763.0" type="qcurve" smooth="yes"/>
      <point x="381.0" y="0.0" type="line"/>
      <point x="485.0" y="0.0" type="line"/>
      <point x="234.0" y="813.0" type="line" smooth="yes"/>
      <point x="208.0" y="897.0"/>
      <point x="180.0" y="1097.0"/>
      <point x="180.0" y="1188.0" type="qcurve" smooth="yes"/>
      <point x="180.0" y="1298.0"/>
      <point x="187.0" y="1390.0"/>
      <point x="213.0" y="1390.0" type="qcurve" smooth="yes"/>
      <point x="241.0" y="1390.0"/>
      <point x="251.0" y="1284.0"/>
      <point x="251.0" y="1192.0" type="qcurve" smooth="yes"/>
      <point x="251.0" y="1105.0"/>
      <point x="234.0" y="959.0"/>
      <point x="212.0" y="909.0" type="qcurve" smooth="yes"/>
      <point x="176.0" y="827.0" type="line" smooth="yes"/>
      <point x="128.0" y="718.0"/>
      <point x="39.0" y="492.0"/>
    </contour>
  </outline>
</glyph>
<glyph name="asterisk" format="2">
  <advance width="626"/>
  <unicode hex="002A"/>
  <outline>
    <contour>
      <point x="38.0" y="1182.0" type="line"/>
      <point x="260.0" y="1113.0" type="line"/>
      <point x="103.0" y="857.0" type="line"/>
      <point x="184.0" y="812.0" type="line"/>
      <point x="313.0" y="1071.0" type="line"/>
      <point x="441.0" y="812.0" type="line"/>
      <point x="522.0" y="857.0" type="line"/>
      <point x="366.0" y="1113.0" type="line"/>
      <point x="588.0" y="1182.0" type="line"/>
      <point x="548.0" y="1282.0" type="line"/>
      <point x="348.0" y="1179.0" type="line"/>
      <point x="365.0" y="1476.0" type="line"/>
      <point x="261.0" y="1476.0" type="line"/>
      <point x="278.0" y="1179.0" type="line"/>
      <point x="77.0" y="1282.0" type="line"/>
    </contour>
  </outline>
</glyph>
<glyph name="plus" format="2">
  <advance width="588"/>
  <unicode hex="002B"/>
  <outline>
    <contour>
      <point x="38.0" y="626.0" type="line"/>
      <point x="550.0" y="626.0" type="line"/>
      <point x="550.0" y="722.0" type="line"/>
      <point x="38.0" y="722.0" type="line"/>
    </contour>
    <contour>
      <point x="247.0" y="258.0" type="line"/>
      <point x="341.0" y="258.0" type="line"/>
      <point x="341.0" y="1090.0" type="line"/>
      <point x="247.0" y="1090.0" type="line"/>
    </contour>
  </outline>
</glyph>
<glyph name="comma" format="2">
  <advance width="242"/>
  <unicode hex="002C"/>
  <outline>
    <contour>
      <point x="4.0" y="-145.0" type="qcurve"/>
      <point x="72.0" y="-182.0" type="line"/>
      <point x="112.0" y="-141.0"/>
      <point x="173.0" y="-25.0"/>
      <point x="172.0" y="50.0" type="qcurve" smooth="yes"/>
      <point x="172.0" y="143.0" type="line"/>
      <point x="73.0" y="143.0" type="line"/>
      <point x="73.0" y="50.0" type="line" smooth="yes"/>
      <point x="73.0" y="-11.0"/>
      <point x="34.0" y="-101.0"/>
    </contour>
  </outline>
</glyph>
<glyph name="slash" format="2">
  <advance width="376"/>
  <unicode hex="002F"/>
  <outline>
    <contour>
      <point x="-33.0" y="-47.0" type="line"/>
      <point x="59.0" y="-47.0" type="line"/>
      <point x="409.0" y="1456.0" type="line"/>
      <point x="316.0" y="1456.0" type="line"/>
    </contour>
  </outline>
</glyph>
<glyph name="one" format="2">
  <advance width="568"/>
  <unicode hex="0031"/>
  <outline>
    <contour>
      <point x="231.0" y="0.0" type="line"/>
      <point x="329.0" y="0.0" type="line"/>
      <point x="329.0" y="1469.0" type="line"/>
      <point x="250.0" y="1469.0" type="line"/>
      <point x="91.0" y="1362.0" type="line"/>
      <point x="91.0" y="1259.0" type="line"/>
      <point x="231.0" y="1358.0" type="line"/>
    </contour>
  </outline>
</glyph>
<glyph name="five" format="2">
  <advance width="568"/>
  <unicode hex="0035"/>
  <outline>
    <contour>
      <point x="45.0" y="360.0" type="line" smooth="yes"/>
      <point x="45.0" y="159.0"/>
      <point x="149.0" y="-20.0"/>
      <point x="267.0" y="-20.0" type="qcurve" smooth="yes"/>
      <point x="391.0" y="-20.0"/>
      <point x="501.0" y="214.0"/>
      <point x="501.0" y="465.0" type="qcurve" smooth="yes"/>
      <point x="501.0" y="712.0"/>
      <point x="404.0" y="913.0"/>
      <point x="294.0" y="913.0" type="qcurve" smooth="yes"/>
      <point x="245.0" y="913.0"/>
      <point x="181.0" y="878.0"/>
      <point x="168.0" y="857.0" type="qcurve"/>
      <point x="197.0" y="1360.0" type="line"/>
      <point x="464.0" y="1360.0" type="line"/>
      <point x="464.0" y="1456.0" type="line"/>
      <point x="114.0" y="1456.0" type="line"/>
      <point x="71.0" y="717.0" type="line"/>
      <point x="134.0" y="685.0" type="line"/>
      <point x="156.0" y="741.0"/>
      <point x="224.0" y="820.0"/>
      <point x="281.0" y="820.0" type="qcurve" smooth="yes"/>
      <point x="341.0" y="820.0"/>
      <point x="400.0" y="683.0"/>
      <point x="400.0" y="465.0" type="qcurve" smooth="yes"/>
      <point x="400.0" y="250.0"/>
      <point x="343.0" y="76.0"/>
      <point x="267.0" y="76.0" type="qcurve" smooth="yes"/>
      <point x="194.0" y="76.0"/>
      <point x="143.0" y="200.0"/>
      <point x="143.0" y="360.0" type="qcurve" smooth="yes"/>
      <point x="143.0" y="390.0" type="line"/>
      <point x="45.0" y="390.0" type="line"/>
    </contour>
  </outline>
</glyph>
<glyph name="six" format="2">
  <advance width="568"/>
  <unicode hex="0036"/>
  <outline>
    <contour>
      <point x="51.0" y="577.0" type="line" smooth="yes"/>
      <point x="51.0" y="219.0"/>
      <point x="166.0" y="-20.0"/>
      <point x="287.0" y="-20.0" type="qcurve" smooth="yes"/>
      <point x="410.0" y="-20.0"/>
      <point x="530.0" y="201.0"/>
      <point x="530.0" y="455.0" type="qcurve" smooth="yes"/>
      <point x="530.0" y="697.0"/>
      <point x="413.0" y="902.0"/>
      <point x="308.0" y="902.0" type="qcurve" smooth="yes"/>
      <point x="205.0" y="902.0"/>
      <point x="77.0" y="665.0"/>
      <point x="77.0" y="465.0" type="qcurve"/>
      <point x="147.0" y="465.0" type="line"/>
      <point x="147.0" y="620.0"/>
      <point x="223.0" y="809.0"/>
      <point x="296.0" y="809.0" type="qcurve" smooth="yes"/>
      <point x="375.0" y="809.0"/>
      <point x="430.0" y="634.0"/>
      <point x="430.0" y="455.0" type="qcurve" smooth="yes"/>
      <point x="430.0" y="261.0"/>
      <point x="372.0" y="75.0"/>
      <point x="290.0" y="75.0" type="qcurve" smooth="yes"/>
      <point x="207.0" y="75.0"/>
      <point x="146.0" y="282.0"/>
      <point x="146.0" y="614.0" type="qcurve" smooth="yes"/>
      <point x="146.0" y="634.0" type="line" smooth="yes"/>
      <point x="146.0" y="1006.0"/>
      <point x="284.0" y="1357.0"/>
      <point x="426.0" y="1370.0" type="qcurve" smooth="yes"/>
      <point x="437.0" y="1370.0" type="line"/>
      <point x="437.0" y="1466.0" type="line"/>
      <point x="426.0" y="1466.0" type="line" smooth="yes"/>
      <point x="254.0" y="1466.0"/>
      <point x="51.0" y="1080.0"/>
      <point x="51.0" y="644.0" type="qcurve" smooth="yes"/>
    </contour>
  </outline>
</glyph>
<glyph name="nine" format="2">
  <advance width="568"/>
  <unicode hex="0039"/>
  <outline>
    <contour>
      <point x="41.0" y="1001.0" type="qcurve" smooth="yes"/>
      <point x="41.0" y="759.0"/>
      <point x="158.0" y="574.0"/>
      <point x="263.0" y="574.0" type="qcurve" smooth="yes"/>
      <point x="366.0" y="574.0"/>
      <point x="494.0" y="791.0"/>
      <point x="494.0" y="991.0" type="qcurve"/>
      <point x="424.0" y="991.0" type="line"/>
      <point x="424.0" y="836.0"/>
      <point x="348.0" y="667.0"/>
      <point x="275.0" y="667.0" type="qcurve" smooth="yes"/>
      <point x="196.0" y="667.0"/>
      <point x="141.0" y="822.0"/>
      <point x="141.0" y="1001.0" type="qcurve" smooth="yes"/>
      <point x="141.0" y="1195.0"/>
      <point x="199.0" y="1381.0"/>
      <point x="281.0" y="1381.0" type="qcurve" smooth="yes"/>
      <point x="364.0" y="1381.0"/>
      <point x="425.0" y="1174.0"/>
      <point x="425.0" y="842.0" type="qcurve" smooth="yes"/>
      <point x="425.0" y="822.0" type="line" smooth="yes"/>
      <point x="425.0" y="450.0"/>
      <point x="288.0" y="76.0"/>
      <point x="145.0" y="76.0" type="qcurve" smooth="yes"/>
      <point x="134.0" y="76.0" type="line"/>
      <point x="134.0" y="-20.0" type="line"/>
      <point x="145.0" y="-20.0" type="line" smooth="yes"/>
      <point x="317.0" y="-20.0"/>
      <point x="520.0" y="358.0"/>
      <point x="520.0" y="812.0" type="qcurve" smooth="yes"/>
      <point x="520.0" y="879.0" type="line" smooth="yes"/>
      <point x="520.0" y="1237.0"/>
      <point x="405.0" y="1476.0"/>
      <point x="284.0" y="1476.0" type="qcurve" smooth="yes"/>
      <point x="161.0" y="1476.0"/>
      <point x="41.0" y="1255.0"/>
    </contour>
  </outline>
</glyph>
<glyph name="colon" format="2">
  <advance width="242"/>
  <unicode hex="003A"/>
  <outline>
    <contour>
      <point x="44.0" y="67.0" type="qcurve" smooth="yes"/>
      <point x="44.0" y="32.0"/>
      <point x="84.0" y="-16.0"/>
      <point x="121.0" y="-16.0" type="qcurve" smooth="yes"/>
      <point x="158.0" y="-16.0"/>
      <point x="198.0" y="31.0"/>
      <point x="198.0" y="67.0" type="qcurve" smooth="yes"/>
      <point x="198.0" y="102.0"/>
      <point x="158.0" y="149.0"/>
      <point x="121.0" y="149.0" type="qcurve" smooth="yes"/>
      <point x="84.0" y="149.0"/>
      <point x="44.0" y="102.0"/>
    </contour>
    <contour>
      <point x="44.0" y="730.0" type="qcurve" smooth="yes"/>
      <point x="44.0" y="695.0"/>
      <point x="84.0" y="647.0"/>
      <point x="121.0" y="647.0" type="qcurve" smooth="yes"/>
      <point x="158.0" y="647.0"/>
      <point x="198.0" y="694.0"/>
      <point x="198.0" y="730.0" type="qcurve" smooth="yes"/>
      <point x="198.0" y="765.0"/>
      <point x="158.0" y="812.0"/>
      <point x="121.0" y="812.0" type="qcurve" smooth="yes"/>
      <point x="84.0" y="812.0"/>
      <point x="44.0" y="765.0"/>
    </contour>
  </outline>
</glyph>
<glyph name="less" format="2">
  <advance width="588"/>
  <unicode hex="003C"/>
  <outline>
    <contour>
      <point x="519.0" y="266.0" type="line"/>
      <point x="519.0" y="389.0" type="line"/>
      <point x="168.0" y="674.0" type="line"/>
      <point x="519.0" y="959.0" type="line"/>
      <point x="519.0" y="1082.0" type="line"/>
      <point x="68.0" y="716.0" type="line"/>
      <point x="68.0" y="632.0" type="line"/>
    </contour>
  </outline>
</glyph>
<glyph name="equal" format="2">
  <advance width="588"/>
  <unicode hex="003D"/>
  <outline>
    <contour>
      <point x="38.0" y="502.0" type="line"/>
      <point x="550.0" y="502.0" type="line"/>
      <point x="550.0" y="598.0" type="line"/>
      <point x="38.0" y="598.0" type="line"/>
    </contour>
    <contour>
      <point x="38.0" y="752.0" type="line"/>
      <point x="550.0" y="752.0" type="line"/>
      <point x="550.0" y="848.0" type="line"/>
      <point x="38.0" y="848.0" type="line"/>
    </contour>
  </outline>
</glyph>
<glyph name="A" format="2">
  <advance width="350"/>
  <unicode hex="0041"/>
  <anchor x="172.0" y="1432.0" name="top"/>
  <outline>
    <contour>
      <point x="-10.0" y="0.0" type="line"/>
      <point x="84.0" y="0.0" type="line"/>
      <point x="153.0" y="884.0" type="line" smooth="yes"/>
      <point x="156.0" y="926.0"/>
      <point x="170.0" y="1100.0"/>
      <point x="172.0" y="1139.0" type="qcurve"/>
      <point x="173.0" y="1139.0" type="line"/>
      <point x="175.0" y="1100.0"/>
      <point x="190.0" y="926.0"/>
      <point x="193.0" y="884.0" type="qcurve" smooth="yes"/>
      <point x="262.0" y="0.0" type="line"/>
      <point x="360.0" y="0.0" type="line"/>
      <point x="232.0" y="1455.0" type="line"/>
      <point x="119.0" y="1455.0" type="line"/>
    </contour>
    <contour>
      <point x="57.0" y="390.0" type="line"/>
      <point x="291.0" y="390.0" type="line"/>
      <point x="273.0" y="485.0" type="line"/>
      <point x="75.0" y="485.0" type="line"/>
    </contour>
  </outline>
</glyph>
<glyph name="E" format="2">
  <advance width="299"/>
  <unicode hex="0045"/>
  <anchor x="169.0" y="1432.0" name="top"/>
  <outline>
    <contour>
      <point x="46.0" y="0.0" type="line"/>
      <point x="293.0" y="0.0" type="line"/>
      <point x="293.0" y="98.0" type="line"/>
      <point x="144.0" y="98.0" type="line"/>
      <point x="144.0" y="707.0" type="line"/>
      <point x="255.0" y="707.0" type="line"/>
      <point x="255.0" y="807.0" type="line"/>
      <point x="144.0" y="807.0" type="line"/>
      <point x="144.0" y="1358.0" type="line"/>
      <point x="282.0" y="1358.0" type="line"/>
      <point x="282.0" y="1456.0" type="line"/>
      <point x="46.0" y="1456.0" type="line"/>
    </contour>
  </outline>
</glyph>
<glyph name="P" format="2">
  <advance width="351"/>
  <unicode hex="0050"/>
  <outline>
    <contour>
      <point x="46.0" y="0.0" type="line"/>
      <point x="146.0" y="0.0" type="line"/>
      <point x="146.0" y="602.0" type="line"/>
      <point x="176.0" y="602.0" type="line" smooth="yes"/>
      <point x="253.0" y="602.0"/>
      <point x="339.0" y="767.0"/>
      <point x="339.0" y="1030.0" type="qcurve" smooth="yes"/>
      <point x="339.0" y="1293.0"/>
      <point x="263.0" y="1456.0"/>
      <point x="157.0" y="1456.0" type="qcurve" smooth="yes"/>
      <point x="46.0" y="1456.0" type="line"/>
    </contour>
    <contour>
      <point x="146.0" y="701.0" type="line"/>
      <point x="146.0" y="1357.0" type="line"/>
      <point x="170.0" y="1357.0" type="line" smooth="yes"/>
      <point x="212.0" y="1357.0"/>
      <point x="243.0" y="1248.0"/>
      <point x="243.0" y="1029.0" type="qcurve" smooth="yes"/>
      <point x="243.0" y="783.0"/>
      <point x="203.0" y="701.0"/>
      <point x="170.0" y="701.0" type="qcurve" smooth="yes"/>
    </contour>
  </outline>
</glyph>
<glyph name="Q" format="2">
  <advance width="378"/>
  <unicode hex="0051"/>
  <outline>
    <contour>
      <point x="42.0" y="204.0" type="line" smooth="yes"/>
      <point x="42.0" y="96.0"/>
      <point x="115.0" y="-8.0"/>
      <point x="188.0" y="-8.0" type="qcurve" smooth="yes"/>
      <point x="256.0" y="-8.0"/>
      <point x="336.0" y="97.0"/>
      <point x="336.0" y="204.0" type="qcurve" smooth="yes"/>
      <point x="336.0" y="1259.0" type="line" smooth="yes"/>
      <point x="336.0" y="1370.0"/>
      <point x="262.0" y="1466.0"/>
      <point x="188.0" y="1466.0" type="qcurve" smooth="yes"/>
      <point x="113.0" y="1466.0"/>
      <point x="42.0" y="1370.0"/>
      <point x="42.0" y="1259.0" type="qcurve" smooth="yes"/>
    </contour>
    <contour>
      <point x="142.0" y="223.0" type="qcurve" smooth="yes"/>
      <point x="142.0" y="1236.0" type="line" smooth="yes"/>
      <point x="142.0" y="1321.0"/>
      <point x="164.0" y="1362.0"/>
      <point x="188.0" y="1362.0" type="qcurve" smooth="yes"/>
      <point x="212.0" y="1362.0"/>
      <point x="236.0" y="1321.0"/>
      <point x="236.0" y="1236.0" type="qcurve" smooth="yes"/>
      <point x="236.0" y="223.0" type="line" smooth="yes"/>
      <point x="236.0" y="126.0"/>
      <point x="210.0" y="84.0"/>
      <point x="188.0" y="84.0" type="qcurve" smooth="yes"/>
      <point x="164.0" y="84.0"/>
      <point x="142.0" y="127.0"/>
    </contour>
    <contour>
      <point x="305.0" y="-113.0" type="line"/>
      <point x="364.0" y="-46.0" type="line"/>
      <point x="224.0" y="88.0" type="line"/>
      <point x="169.0" y="21.0" type="line"/>
    </contour>
  </outline>
</glyph>
<glyph name="U" format="2">
  <advance width="375"/>
  <unicode hex="0055"/>
  <anchor x="189.0" y="1432.0" name="top"/>
  <outline>
    <contour>
      <point x="42.0" y="230.0" type="line" smooth="yes"/>
      <point x="42.0" y="105.0"/>
      <point x="117.0" y="-12.0"/>
      <point x="188.0" y="-12.0" type="qcurve" smooth="yes"/>
      <point x="258.0" y="-12.0"/>
      <point x="333.0" y="105.0"/>
      <point x="333.0" y="230.0" type="qcurve" smooth="yes"/>
      <point x="333.0" y="1456.0" type="line"/>
      <point x="237.0" y="1456.0" type="line"/>
      <point x="239.0" y="203.0" type="line" smooth="yes"/>
      <point x="239.0" y="125.0"/>
      <point x="212.0" y="84.0"/>
      <point x="188.0" y="84.0" type="qcurve" smooth="yes"/>
      <point x="164.0" y="84.0"/>
      <point x="142.0" y="125.0"/>
      <point x="142.0" y="203.0" type="qcurve" smooth="yes"/>
      <point x="140.0" y="1456.0" type="line"/>
      <point x="42.0" y="1456.0" type="line"/>
    </contour>
  </outline>
</glyph>
<glyph name="X" format="2">
  <advance width="356"/>
  <unicode hex="0058"/>
  <outline>
    <contour>
      <point x="0.0" y="0.0" type="line"/>
      <point x="91.0" y="0.0" type="line"/>
      <point x="191.0" y="606.0" type="line"/>
      <point x="216.0" y="712.0" type="line"/>
      <point x="346.0" y="1456.0" type="line"/>
      <point x="255.0" y="1456.0" type="line"/>
      <point x="173.0" y="959.0" type="line"/>
      <point x="149.0" y="853.0" type="line"/>
    </contour>
    <contour>
      <point x="14.0" y="1456.0" type="line"/>
      <point x="146.0" y="670.0" type="line"/>
      <point x="166.0" y="589.0" type="line"/>
      <point x="259.0" y="0.0" type="line"/>
      <point x="356.0" y="0.0" type="line"/>
      <point x="211.0" y="862.0" type="line"/>
      <point x="195.0" y="925.0" type="line"/>
      <point x="111.0" y="1456.0" type="line"/>
    </contour>
  </outline>
</glyph>
<glyph name="Z" format="2">
  <advance width="276"/>
  <unicode hex="005A"/>
  <outline>
    <contour>
      <point x="6.0" y="0.0" type="line"/>
      <point x="272.0" y="0.0" type="line"/>
      <point x="272.0" y="96.0" type="line"/>
      <point x="100.0" y="96.0" type="line"/>
      <point x="260.0" y="1392.0" type="line"/>
      <point x="260.0" y="1456.0" type="line"/>
      <point x="19.0" y="1456.0" type="line"/>
      <point x="19.0" y="1360.0" type="line"/>
      <point x="156.0" y="1360.0" type="line"/>
      <point x="6.0" y="64.0" type="line"/>
    </contour>
  </outline>
</glyph>
<glyph name="asciicircum" format="2">
  <advance width="655"/>
  <unicode hex="005E"/>
  <outline>
    <contour>
      <point x="25.0" y="757.0" type="line"/>
      <point x="121.0" y="757.0" type="line"/>
      <point x="327.0" y="1287.0" type="line"/>
      <point x="534.0" y="757.0" type="line"/>
      <point x="630.0" y="757.0" type="line"/>
      <point x="368.0" y="1419.0" type="line"/>
      <point x="287.0" y="1419.0" type="line"/>
    </contour>
  </outline>
</glyph>
<glyph name="underscore" format="2">
  <advance width="533"/>
  <unicode hex="005F"/>
  <outline>
    <contour>
      <point x="0.0" y="-177.0" type="line"/>
      <point x="533.0" y="-177.0" type="line"/>
      <point x="533.0" y="-95.0" type="line"/>
      <point x="0.0" y="-95.0" type="line"/>
    </contour>
  </outline>
</glyph>
<glyph name="a" format="2">
  <advance width="320"/>
  <unicode hex="0061"/>
  <anchor x="160.0" y="914.0" name="top"/>
  <outline>
    <contour>
      <point x="13.0" y="268.0" type="qcurve" smooth="yes"/>
      <point x="13.0" y="122.0"/>
      <point x="62.0" y="-6.0"/>
      <point x="118.0" y="-6.0" type="qcurve" smooth="yes"/>
      <point x="146.0" y="-6.0"/>
      <point x="186.0" y="23.0"/>
      <point x="200.0" y="55.0" type="qcurve"/>
      <point x="202.0" y="39.0"/>
      <point x="211.0" y="10.0"/>
      <point x="217.0" y="0.0" type="qcurve"/>
      <point x="301.0" y="0.0" type="line"/>
      <point x="301.0" y="16.0" type="line"/>
      <point x="290.0" y="40.0"/>
      <point x="283.0" y="106.0"/>
      <point x="283.0" y="155.0" type="qcurve" smooth="yes"/>
      <point x="283.0" y="759.0" type="line" smooth="yes"/>
      <point x="283.0" y="849.0"/>
      <point x="220.0" y="925.0"/>
      <point x="161.0" y="925.0" type="qcurve" smooth="yes"/>
      <point x="102.0" y="925.0"/>
      <point x="35.0" y="842.0"/>
      <point x="35.0" y="764.0" type="qcurve" smooth="yes"/>
      <point x="35.0" y="649.0" type="line"/>
      <point x="127.0" y="649.0" type="line"/>
      <point x="127.0" y="778.0" type="line" smooth="yes"/>
      <point x="127.0" y="803.0"/>
      <point x="142.0" y="830.0"/>
      <point x="159.0" y="830.0" type="qcurve" smooth="yes"/>
      <point x="177.0" y="830.0"/>
      <point x="192.0" y="799.0"/>
      <point x="192.0" y="768.0" type="qcurve" smooth="yes"/>
      <point x="192.0" y="550.0" type="line"/>
      <point x="156.0" y="550.0" type="line" smooth="yes"/>
      <point x="93.0" y="550.0"/>
      <point x="13.0" y="429.0"/>
    </contour>
    <contour>
      <point x="106.0" y="258.0" type="qcurve" smooth="yes"/>
      <point x="106.0" y="380.0"/>
      <point x="131.0" y="459.0"/>
      <point x="164.0" y="459.0" type="qcurve" smooth="yes"/>
      <point x="192.0" y="459.0" type="line"/>
      <point x="192.0" y="156.0" type="line"/>
      <point x="192.0" y="118.0"/>
      <point x="171.0" y="82.0"/>
      <point x="148.0" y="82.0" type="qcurve" smooth="yes"/>
      <point x="124.0" y="82.0"/>
      <point x="106.0" y="136.0"/>
    </contour>
  </outline>
</glyph>
<glyph name="b" format="2">
  <advance width="368"/>
  <unicode hex="0062"/>
  <outline>
    <contour>
      <point x="40.0" y="0.0" type="line"/>
      <point x="131.0" y="0.0" type="line"/>
      <point x="131.0" y="41.0" type="line"/>
      <point x="131.0" y="41.0" type="line"/>
      <point x="145.0" y="17.0"/>
      <point x="193.0" y="-8.0"/>
      <point x="224.0" y="-8.0" type="qcurve" smooth="yes"/>
      <point x="278.0" y="-8.0"/>
      <point x="332.0" y="86.0"/>
      <point x="332.0" y="163.0" type="qcurve" smooth="yes"/>
      <point x="332.0" y="756.0" type="line" smooth="yes"/>
      <point x="332.0" y="844.0"/>
      <point x="275.0" y="923.0"/>
      <point x="221.0" y="923.0" type="qcurve" smooth="yes"/>
      <point x="181.0" y="923.0"/>
      <point x="135.0" y="876.0"/>
      <point x="131.0" y="854.0" type="qcurve"/>
      <point x="131.0" y="1456.0" type="line"/>
      <point x="40.0" y="1456.0" type="line"/>
    </contour>
    <contour>
      <point x="131.0" y="127.0" type="qcurve"/>
      <point x="131.0" y="775.0" type="line"/>
      <point x="136.0" y="805.0"/>
      <point x="168.0" y="829.0"/>
      <point x="187.0" y="829.0" type="qcurve" smooth="yes"/>
      <point x="213.0" y="829.0"/>
      <point x="240.0" y="795.0"/>
      <point x="240.0" y="732.0" type="qcurve" smooth="yes"/>
      <point x="240.0" y="172.0" type="line" smooth="yes"/>
      <point x="240.0" y="121.0"/>
      <point x="206.0" y="84.0"/>
      <point x="183.0" y="84.0" type="qcurve" smooth="yes"/>
      <point x="161.0" y="84.0"/>
      <point x="137.0" y="105.0"/>
    </contour>
  </outline>
</glyph>
<glyph name="c" format="2">
  <advance width="306"/>
  <unicode hex="0063"/>
  <anchor x="169.0" y="0" name="bottom"/>
  <outline>
    <contour>
      <point x="36.0" y="170.0" type="line" smooth="yes"/>
      <point x="36.0" y="81.0"/>
      <point x="110.0" y="-9.0"/>
      <point x="169.0" y="-9.0" type="qcurve" smooth="yes"/>
      <point x="223.0" y="-9.0"/>
      <point x="294.0" y="58.0"/>
      <point x="294.0" y="125.0" type="qcurve" smooth="yes"/>
      <point x="294.0" y="319.0" type="line"/>
      <point x="203.0" y="319.0" type="line"/>
      <point x="203.0" y="144.0" type="line" smooth="yes"/>
      <point x="203.0" y="102.0"/>
      <point x="185.0" y="84.0"/>
      <point x="167.0" y="84.0" type="qcurve" smooth="yes"/>
      <point x="150.0" y="84.0"/>
      <point x="129.0" y="111.0"/>
      <point x="129.0" y="170.0" type="qcurve" smooth="yes"/>
      <point x="129.0" y="747.0" type="line" smooth="yes"/>
      <point x="129.0" y="803.0"/>
      <point x="151.0" y="831.0"/>
      <point x="167.0" y="831.0" type="qcurve" smooth="yes"/>
      <point x="184.0" y="831.0"/>
      <point x="203.0" y="806.0"/>
      <point x="203.0" y="774.0" type="qcurve" smooth="yes"/>
      <point x="203.0" y="595.0" type="line"/>
      <point x="294.0" y="595.0" type="line"/>
      <point x="294.0" y="793.0" type="line" smooth="yes"/>
      <point x="294.0" y="854.0"/>
      <point x="227.0" y="923.0"/>
      <point x="169.0" y="923.0" type="qcurve" smooth="yes"/>
      <point x="106.0" y="923.0"/>
      <point x="36.0" y="832.0"/>
      <point x="36.0" y="747.0" type="qcurve" smooth="yes"/>
    </contour>
  </outline>
</glyph>
<glyph name="e" format="2">
  <advance width="350"/>
  <unicode hex="0065"/>
  <anchor x="187.0" y="914.0" name="top"/>
  <outline>
    <contour>
      <point x="36.0" y="167.0" type="line" smooth="yes"/>
      <point x="36.0" y="79.0"/>
      <point x="119.0" y="-9.0"/>
      <point x="189.0" y="-9.0" type="qcurve" smooth="yes"/>
      <point x="257.0" y="-9.0"/>
      <point x="339.0" y="116.0"/>
      <point x="333.0" y="239.0" type="qcurve"/>
      <point x="242.0" y="251.0" type="line"/>
      <point x="245.0" y="156.0"/>
      <point x="218.0" y="81.0"/>
      <point x="185.0" y="81.0" type="qcurve" smooth="yes"/>
      <point x="156.0" y="81.0"/>
      <point x="128.0" y="120.0"/>
      <point x="128.0" y="171.0" type="qcurve" smooth="yes"/>
      <point x="128.0" y="738.0" type="line" smooth="yes"/>
      <point x="128.0" y="796.0"/>
      <point x="162.0" y="831.0"/>
      <point x="188.0" y="831.0" type="qcurve" smooth="yes"/>
      <point x="212.0" y="831.0"/>
      <point x="241.0" y="793.0"/>
      <point x="241.0" y="737.0" type="qcurve"/>
      <point x="241.0" y="548.0" type="line"/>
      <point x="72.0" y="548.0" type="line"/>
      <point x="72.0" y="462.0" type="line"/>
      <point x="335.0" y="462.0" type="line"/>
      <point x="335.0" y="743.0" type="line" smooth="yes"/>
      <point x="335.0" y="836.0"/>
      <point x="259.0" y="923.0"/>
      <point x="191.0" y="923.0" type="qcurve" smooth="yes"/>
      <point x="121.0" y="923.0"/>
      <point x="36.0" y="825.0"/>
      <point x="36.0" y="743.0" type="qcurve" smooth="yes"/>
    </contour>
  </outline>
</glyph>
<glyph name="m" format="2">
  <advance width="551"/>
  <unicode hex="006D"/>
  <outline>
    <contour>
      <point x="40.0" y="0.0" type="line"/>
      <point x="131.0" y="0.0" type="line"/>
      <point x="131.0" y="785.0" type="line"/>
      <point x="136.0" y="809.0"/>
      <point x="164.0" y="833.0"/>
      <point x="185.0" y="833.0" type="qcurve" smooth="yes"/>
      <point x="205.0" y="833.0"/>
      <point x="231.0" y="805.0"/>
      <point x="231.0" y="750.0" type="qcurve" smooth="yes"/>
      <point x="231.0" y="0.0" type="line"/>
      <point x="322.0" y="0.0" type="line"/>
      <point x="322.0" y="785.0" type="line"/>
      <point x="327.0" y="809.0"/>
      <point x="355.0" y="833.0"/>
      <point x="376.0" y="833.0" type="qcurve" smooth="yes"/>
      <point x="396.0" y="833.0"/>
      <point x="422.0" y="805.0"/>
      <point x="422.0" y="750.0" type="qcurve" smooth="yes"/>
      <point x="422.0" y="0.0" type="line"/>
      <point x="513.0" y="0.0" type="line"/>
      <point x="513.0" y="784.0" type="line" smooth="yes"/>
      <point x="513.0" y="858.0"/>
      <point x="462.0" y="924.0"/>
      <point x="415.0" y="924.0" type="qcurve" smooth="yes"/>
      <point x="384.0" y="924.0"/>
      <point x="330.0" y="894.0"/>
      <point x="312.0" y="863.0" type="qcurve"/>
      <point x="311.0" y="863.0" type="line"/>
      <point x="299.0" y="895.0"/>
      <point x="257.0" y="924.0"/>
      <point x="228.0" y="924.0" type="qcurve" smooth="yes"/>
      <point x="197.0" y="924.0"/>
      <point x="144.0" y="894.0"/>
      <point x="128.0" y="864.0" type="qcurve"/>
      <point x="127.0" y="864.0" type="line"/>
      <point x="127.0" y="914.0" type="line"/>
      <point x="40.0" y="914.0" type="line"/>
    </contour>
  </outline>
</glyph>
<glyph name="q" format="2">
  <advance width="368"/>
  <unicode hex="0071"/>
  <outline>
    <contour>
      <point x="36.0" y="163.0" type="line" smooth="yes"/>
      <point x="36.0" y="86.0"/>
      <point x="90.0" y="-8.0"/>
      <point x="144.0" y="-8.0" type="qcurve" smooth="yes"/>
      <point x="175.0" y="-8.0"/>
      <point x="223.0" y="17.0"/>
      <point x="237.0" y="41.0" type="qcurve"/>
      <point x="237.0" y="41.0" type="line"/>
      <point x="237.0" y="-416.0" type="line"/>
      <point x="328.0" y="-416.0" type="line"/>
      <point x="328.0" y="914.0" type="line"/>
      <point x="237.0" y="914.0" type="line"/>
      <point x="237.0" y="854.0" type="line"/>
      <point x="237.0" y="854.0" type="line"/>
      <point x="233.0" y="876.0"/>
      <point x="187.0" y="923.0"/>
      <point x="147.0" y="923.0" type="qcurve" smooth="yes"/>
      <point x="93.0" y="923.0"/>
      <point x="36.0" y="844.0"/>
      <point x="36.0" y="756.0" type="qcurve" smooth="yes"/>
    </contour>
    <contour>
      <point x="128.0" y="172.0" type="qcurve" smooth="yes"/>
      <point x="128.0" y="732.0" type="line" smooth="yes"/>
      <point x="128.0" y="795.0"/>
      <point x="155.0" y="829.0"/>
      <point x="181.0" y="829.0" type="qcurve" smooth="yes"/>
      <point x="200.0" y="829.0"/>
      <point x="232.0" y="805.0"/>
      <point x="237.0" y="775.0" type="qcurve"/>
      <point x="237.0" y="127.0" type="line"/>
      <point x="231.0" y="105.0"/>
      <point x="207.0" y="84.0"/>
      <point x="185.0" y="84.0" type="qcurve" smooth="yes"/>
      <point x="162.0" y="84.0"/>
      <point x="128.0" y="121.0"/>
    </contour>
  </outline>
</glyph>
<glyph name="t" format="2">
  <advance width="230"/>
  <unicode hex="0074"/>
  <outline>
    <contour>
      <point x="-6.0" y="826.0" type="line"/>
      <point x="225.0" y="826.0" type="line"/>
      <point x="225.0" y="914.0" type="line"/>
      <point x="-6.0" y="914.0" type="line"/>
    </contour>
    <contour>
      <point x="47.0" y="144.0" type="line" smooth="yes"/>
      <point x="47.0" y="69.0"/>
      <point x="111.0" y="-9.0"/>
      <point x="167.0" y="-9.0" type="qcurve" smooth="yes"/>
      <point x="191.0" y="-9.0"/>
      <point x="223.0" y="-5.0"/>
      <point x="234.0" y="1.0" type="qcurve"/>
      <point x="232.0" y="90.0" type="line"/>
      <point x="225.0" y="86.0"/>
      <point x="207.0" y="81.0"/>
      <point x="193.0" y="81.0" type="qcurve" smooth="yes"/>
      <point x="170.0" y="81.0"/>
      <point x="139.0" y="115.0"/>
      <point x="139.0" y="166.0" type="qcurve" smooth="yes"/>
      <point x="139.0" y="1142.0" type="line"/>
      <point x="47.0" y="1142.0" type="line"/>
      <point x="47.0" y="883.0" type="line"/>
      <point x="47.0" y="872.0" type="line"/>
    </contour>
  </outline>
</glyph>
<glyph name="u" format="2">
  <advance width="360"/>
  <unicode hex="0075"/>
  <anchor x="177.0" y="914.0" name="top"/>
  <outline>
    <contour>
      <point x="38.0" y="131.0" type="line" smooth="yes"/>
      <point x="38.0" y="57.0"/>
      <point x="89.0" y="-9.0"/>
      <point x="132.0" y="-9.0" type="qcurve" smooth="yes"/>
      <point x="163.0" y="-9.0"/>
      <point x="216.0" y="20.0"/>
      <point x="232.0" y="50.0" type="qcurve"/>
      <point x="233.0" y="50.0" type="line"/>
      <point x="233.0" y="0.0" type="line"/>
      <point x="320.0" y="0.0" type="line"/>
      <point x="320.0" y="914.0" type="line"/>
      <point x="229.0" y="914.0" type="line"/>
      <point x="229.0" y="130.0" type="line"/>
      <point x="224.0" y="106.0"/>
      <point x="196.0" y="82.0"/>
      <point x="175.0" y="82.0" type="qcurve" smooth="yes"/>
      <point x="155.0" y="82.0"/>
      <point x="129.0" y="110.0"/>
      <point x="129.0" y="165.0" type="qcurve" smooth="yes"/>
      <point x="129.0" y="914.0" type="line"/>
      <point x="38.0" y="914.0" type="line"/>
    </contour>
  </outline>
</glyph>
<glyph name="v" format="2">
  <advance width="315"/>
  <unicode hex="0076"/>
  <outline>
    <contour>
      <point x="5.0" y="914.0" type="line"/>
      <point x="113.0" y="0.0" type="line"/>
      <point x="198.0" y="0.0" type="line"/>
      <point x="310.0" y="914.0" type="line"/>
      <point x="219.0" y="914.0" type="line"/>
      <point x="161.0" y="336.0" type="line" smooth="yes"/>
      <point x="160.0" y="325.0"/>
      <point x="157.0" y="294.0"/>
      <point x="156.0" y="285.0" type="qcurve"/>
      <point x="156.0" y="285.0" type="line"/>
      <point x="155.0" y="294.0"/>
      <point x="153.0" y="325.0"/>
      <point x="152.0" y="336.0" type="qcurve" smooth="yes"/>
      <point x="97.0" y="914.0" type="line"/>
    </contour>
  </outline>
</glyph>
<glyph name="w" format="2">
  <advance width="506"/>
  <unicode hex="0077"/>
  <outline>
    <contour>
      <point x="0.0" y="914.0" type="line"/>
      <point x="106.0" y="0.0" type="line"/>
      <point x="184.0" y="0.0" type="line"/>
      <point x="242.0" y="630.0" type="line" smooth="yes"/>
      <point x="242.0" y="632.0"/>
      <point x="247.0" y="681.0"/>
      <point x="247.0" y="683.0" type="qcurve"/>
      <point x="247.0" y="683.0" type="line"/>
      <point x="247.0" y="681.0"/>
      <point x="251.0" y="632.0"/>
      <point x="251.0" y="630.0" type="qcurve" smooth="yes"/>
      <point x="315.0" y="0.0" type="line"/>
      <point x="393.0" y="0.0" type="line"/>
      <point x="506.0" y="914.0" type="line"/>
      <point x="420.0" y="914.0" type="line"/>
      <point x="359.0" y="319.0" type="line" smooth="yes"/>
      <point x="359.0" y="315.0"/>
      <point x="358.0" y="297.0"/>
      <point x="358.0" y="295.0" type="qcurve"/>
      <point x="357.0" y="295.0" type="line"/>
      <point x="357.0" y="297.0"/>
      <point x="356.0" y="315.0"/>
      <point x="356.0" y="319.0" type="qcurve" smooth="yes"/>
      <point x="293.0" y="914.0" type="line"/>
      <point x="208.0" y="914.0" type="line"/>
      <point x="146.0" y="318.0" type="line" smooth="yes"/>
      <point x="146.0" y="315.0"/>
      <point x="145.0" y="303.0"/>
      <point x="145.0" y="295.0" type="qcurve"/>
      <point x="144.0" y="295.0" type="line"/>
      <point x="144.0" y="303.0"/>
      <point x="143.0" y="315.0"/>
      <point x="143.0" y="318.0" type="qcurve" smooth="yes"/>
      <point x="91.0" y="914.0" type="line"/>
    </contour>
  </outline>
</glyph>
<glyph name="x" format="2">
  <advance width="329"/>
  <unicode hex="0078"/>
  <outline>
    <contour>
      <point x="0.0" y="0.0" type="line"/>
      <point x="99.0" y="0.0" type="line"/>
      <point x="174.0" y="346.0" type="line"/>
      <point x="196.0" y="386.0" type="line"/>
      <point x="327.0" y="914.0" type="line"/>
      <point x="231.0" y="914.0" type="line"/>
      <point x="155.0" y="572.0" type="line"/>
      <point x="133.0" y="532.0" type="line"/>
    </contour>
    <contour>
      <point x="0.0" y="914.0" type="line"/>
      <point x="136.0" y="383.0" type="line"/>
      <point x="144.0" y="357.0" type="line"/>
      <point x="234.0" y="0.0" type="line"/>
      <point x="329.0" y="0.0" type="line"/>
      <point x="193.0" y="526.0" type="line"/>
      <point x="184.0" y="555.0" type="line"/>
      <point x="94.0" y="914.0" type="line"/>
    </contour>
  </outline>
</glyph>
<glyph name="braceleft" format="2">
  <advance width="466"/>
  <unicode hex="007B"/>
  <outline>
    <contour>
      <point x="422.0" y="-312.0" type="qcurve"/>
      <point x="422.0" y="-232.0" type="line"/>
      <point x="313.0" y="-232.0"/>
      <point x="229.0" y="-44.0"/>
      <point x="262.0" y="122.0" type="qcurve" smooth="yes"/>
      <point x="304.0" y="334.0" type="line" smooth="yes"/>
      <point x="321.0" y="418.0"/>
      <point x="272.0" y="546.0"/>
      <point x="182.0" y="574.0" type="qcurve"/>
      <point x="272.0" y="602.0"/>
      <point x="321.0" y="730.0"/>
      <point x="304.0" y="814.0" type="qcurve" smooth="yes"/>
      <point x="262.0" y="1026.0" type="line" smooth="yes"/>
      <point x="229.0" y="1192.0"/>
      <point x="313.0" y="1380.0"/>
      <point x="422.0" y="1380.0" type="qcurve"/>
      <point x="422.0" y="1460.0" type="line"/>
      <point x="256.0" y="1460.0"/>
      <point x="117.0" y="1222.0"/>
      <point x="159.0" y="1031.0" type="qcurve" smooth="yes"/>
      <point x="201.0" y="819.0" type="line" smooth="yes"/>
      <point x="226.0" y="694.0"/>
      <point x="146.0" y="614.0"/>
      <point x="52.0" y="614.0" type="qcurve"/>
      <point x="52.0" y="534.0" type="line"/>
      <point x="146.0" y="534.0"/>
      <point x="226.0" y="454.0"/>
      <point x="201.0" y="329.0" type="qcurve" smooth="yes"/>
      <point x="159.0" y="117.0" type="line" smooth="yes"/>
      <point x="117.0" y="-74.0"/>
      <point x="256.0" y="-312.0"/>
    </contour>
  </outline>
</glyph>
<glyph name="ring" format="2">
  <advance width="1024"/>
  <unicode hex="02DA"/>
  <anchor x="336.0" y="1693.0" name="mkmktop_acc"/>
  <outline>
    <contour>
      <point x="286.0" y="1389.0" type="qcurve"/>
      <point x="286.0" y="1298.0"/>
      <point x="416.0" y="1175.0"/>
      <point x="512.0" y="1175.0" type="qcurve" smooth="yes"/>
      <point x="606.0" y="1175.0"/>
      <point x="738.0" y="1298.0"/>
      <point x="738.0" y="1389.0" type="qcurve" smooth="yes"/>
      <point x="738.0" y="1479.0"/>
      <point x="606.0" y="1607.0"/>
      <point x="512.0" y="1607.0" type="qcurve" smooth="yes"/>
      <point x="416.0" y="1607.0"/>
      <point x="286.0" y="1479.0"/>
    </contour>
    <contour>
      <point x="396.0" y="1389.0" type="qcurve"/>
      <point x="396.0" y="1435.0"/>
      <point x="461.0" y="1507.0"/>
      <point x="512.0" y="1507.0" type="qcurve" smooth="yes"/>
      <point x="563.0" y="1507.0"/>
      <point x="628.0" y="1435.0"/>
      <point x="628.0" y="1389.0" type="qcurve" smooth="yes"/>
      <point x="628.0" y="1343.0"/>
      <point x="563.0" y="1274.0"/>
      <point x="512.0" y="1274.0" type="qcurve" smooth="yes"/>
      <point x="461.0" y="1274.0"/>
      <point x="396.0" y="1345.0"/>
    </contour>
  </outline>
</glyph>
